STARTFONT 2.1
COMMENT Copyright (C) 1990-1991 EWT Consulting
COMMENT Portions Copyright (C) 1994-1995 Cronyx Ltd.
COMMENT Changes Copyright (C) 1996-1997 by Andrey A. Chernov, Moscow, Russia.
COMMENT Modified by Serge Vakulenko, <vak@cronyx.ru>
COMMENT Changes 1999 by Serge Winitzki.
COMMENT This software may be used, modified, copied, distributed, and sold,
COMMENT in both source and binary form provided that the copyright
COMMENT and these terms are retained. Under no circumstances is the author
COMMENT responsible for the proper functioning of this software, nor does
COMMENT the author assume any responsibility for damages incurred with its use.
FONT -Cronyx-Times-Medium-R-Normal--34-240-100-100-P-124-KOI8-C
SIZE 24 96 96
FONTBOUNDINGBOX 33 34 0 -8
STARTPROPERTIES 23
DEFAULT_CHAR 32
FONT_ASCENT 27
FONT_DESCENT 8
SPACING "P"
FONTNAME_REGISTRY ""
FOUNDRY "Cronyx"
FAMILY_NAME "Times"
WEIGHT_NAME "Medium"
SLANT "R"
SETWIDTH_NAME "Normal"
ADD_STYLE_NAME ""
AVERAGE_WIDTH 124
CHARSET_REGISTRY "KOI8"
CHARSET_ENCODING "C"
PIXEL_SIZE 34
POINT_SIZE 240
RESOLUTION_X 100
RESOLUTION_Y 100
COPYRIGHT "Copyright (C) 1990, 1991 EWT Consulting, Portions Copyright (C) 1994 Cronyx Ltd., Portions Copyright (C) 1996-1997 by Andrey A. Chernov, Moscow, Russia."
_XMBDFED_INFO "Edited with xmbdfed 3.8."
_XFREE86_GLYPH_RANGES "3_10 26_27 30_255"
X_HEIGHT 15
CAP_HEIGHT 22
ENDPROPERTIES
CHARS 236
STARTCHAR multi
ENCODING 3
SWIDTH 437 0
DWIDTH 14 0
BBX 12 10 2 4
BITMAP
E070
70E0
39C0
1F80
0F00
0F00
1F80
39C0
70E0
E070
ENDCHAR
STARTCHAR divide
ENCODING 4
SWIDTH 562 0
DWIDTH 18 0
BBX 16 14 1 2
BITMAP
0180
03C0
03C0
0180
0000
0000
FFFF
FFFF
0000
0000
0180
03C0
03C0
0180
ENDCHAR
STARTCHAR promille
ENCODING 5
SWIDTH 1031 0
DWIDTH 33 0
BBX 32 23 1 0
BITMAP
07C0E000
1CF3C000
383FC000
701D8000
70130000
E0130000
E0360000
E02C0000
E06C0000
70D80000
7BB00000
1E33E07C
006E31C6
00FC1B83
00F80F03
01B80F01
03700E01
03701E03
06701E02
0C703E06
0C38670C
183DC7B8
300F01E0
ENDCHAR
STARTCHAR approx
ENCODING 6
SWIDTH 906 0
DWIDTH 29 0
BBX 13 9 1 4
BITMAP
3C08
7F18
C7F0
81E0
0000
3C08
7F18
C7F0
81E0
ENDCHAR
STARTCHAR degree
ENCODING 7
SWIDTH 500 0
DWIDTH 16 0
BBX 15 23 1 -8
BITMAP
F078
7038
7038
7038
7038
7038
7038
7038
7038
7038
7038
7038
787E
7FB8
7F30
7000
7000
7000
7000
7000
7000
7000
F000
ENDCHAR
STARTCHAR plusminus
ENCODING 8
SWIDTH 562 0
DWIDTH 18 0
BBX 16 17 1 0
BITMAP
0180
0180
0180
0180
0180
0180
0180
FFFF
FFFF
0180
0180
0180
0180
0180
0180
FFFF
FFFF
ENDCHAR
STARTCHAR pilcrow
ENCODING 9
SWIDTH 562 0
DWIDTH 18 0
BBX 17 22 1 0
BITMAP
1FFF80
7FFF00
7F8E00
FF8E00
FF8E00
FF8E00
FF8E00
FF8E00
7F8E00
7F8E00
1F8E00
038E00
038E00
038E00
038E00
038E00
038E00
038E00
038E00
038E00
078F00
0FDF80
ENDCHAR
STARTCHAR ddagger
ENCODING 10
SWIDTH 562 0
DWIDTH 18 0
BBX 16 21 1 0
BITMAP
0180
03C0
0660
03C0
318C
318C
FFFF
FFFF
318C
318C
0180
318C
318C
FFFF
FFFF
318C
318C
03C0
0660
03C0
0180
ENDCHAR
STARTCHAR lessequal
ENCODING 26
SWIDTH 562 0
DWIDTH 18 0
BBX 16 18 1 0
BITMAP
0003
000F
003C
00F8
03C0
0F00
3C00
F000
F000
3C00
0F00
03C0
00F0
003C
000F
0003
FFFF
FFFF
ENDCHAR
STARTCHAR greaterequal
ENCODING 27
SWIDTH 562 0
DWIDTH 18 0
BBX 16 18 1 0
BITMAP
C000
F000
3C00
0F00
03C0
00F0
003C
000F
000F
003C
00F0
03C0
0F00
3C00
F000
C000
FFFF
FFFF
ENDCHAR
STARTCHAR currency
ENCODING 30
SWIDTH 437 0
DWIDTH 14 0
BBX 12 14 2 0
BITMAP
C060
60C0
3180
1F00
1F80
39C0
30C0
30C0
39C0
1F80
1F80
30C0
6060
C030
ENDCHAR
STARTCHAR twosuperior
ENCODING 31
SWIDTH 250 0
DWIDTH 8 0
BBX 8 10 0 13
BITMAP
7C
86
06
06
0C
18
30
61
FE
FC
ENDCHAR
STARTCHAR space
ENCODING 32
SWIDTH 250 0
DWIDTH 8 0
BBX 0 0 0 0
BITMAP
ENDCHAR
STARTCHAR exclam
ENCODING 33
SWIDTH 281 0
DWIDTH 9 0
BBX 3 23 3 0
BITMAP
40
E0
E0
E0
E0
E0
E0
E0
E0
E0
40
40
40
40
40
00
00
00
00
40
E0
E0
40
ENDCHAR
STARTCHAR quotedbl
ENCODING 34
SWIDTH 375 0
DWIDTH 12 0
BBX 8 7 2 16
BITMAP
42
E7
E7
E7
42
42
42
ENDCHAR
STARTCHAR numbersign
ENCODING 35
SWIDTH 500 0
DWIDTH 16 0
BBX 16 22 0 0
BITMAP
0618
0618
0618
0618
0618
0618
7FFF
7FFF
0C30
0C30
0C30
0C30
0C30
0C30
FFFE
FFFE
1860
1860
1860
1860
1860
1860
ENDCHAR
STARTCHAR dollar
ENCODING 36
SWIDTH 500 0
DWIDTH 16 0
BBX 14 28 1 -3
BITMAP
0300
0300
0300
0FC8
3B78
7318
7308
F308
F300
F300
7B00
7F00
3F80
1FC0
07F0
03F8
03F8
037C
033C
833C
833C
C338
E338
F370
9FC0
0300
0300
0300
ENDCHAR
STARTCHAR percent
ENCODING 37
SWIDTH 875 0
DWIDTH 28 0
BBX 26 23 1 0
BITMAP
07C03800
1CF0F000
383FF000
703F6000
7010C000
E010C000
E0318000
E0230000
E0630000
70C60000
7B8C0000
1E0C1E00
00187380
0030E080
0031C0C0
0061C040
00C38040
00C380C0
01838080
03038180
0301C300
0601EE00
0C007800
ENDCHAR
STARTCHAR ampersand
ENCODING 38
SWIDTH 781 0
DWIDTH 25 0
BBX 20 23 3 0
BITMAP
038000
0EE000
0C6000
183000
183000
183000
1C6000
0EC000
0F8000
0F8000
1F87F0
39C1C0
71C180
60E180
E07300
E07300
E03E00
E03E00
F01C00
701E10
7C3F30
3FE7E0
0F83C0
ENDCHAR
STARTCHAR quotesingle
ENCODING 39
SWIDTH 281 0
DWIDTH 9 0
BBX 3 7 3 16
BITMAP
40
E0
E0
E0
40
40
40
ENDCHAR
STARTCHAR parenleft
ENCODING 40
SWIDTH 343 0
DWIDTH 11 0
BBX 8 29 2 -7
BITMAP
03
06
0C
0C
18
18
30
30
70
60
60
E0
E0
E0
E0
E0
E0
E0
60
60
70
30
30
18
18
0C
0C
06
03
ENDCHAR
STARTCHAR parenright
ENCODING 41
SWIDTH 343 0
DWIDTH 11 0
BBX 8 29 1 -7
BITMAP
C0
60
30
30
18
18
0C
0C
0E
06
06
07
07
07
07
07
07
07
06
06
0E
0C
0C
18
18
30
30
60
C0
ENDCHAR
STARTCHAR asterisk
ENCODING 42
SWIDTH 500 0
DWIDTH 16 0
BBX 11 14 2 11
BITMAP
0400
0E00
0E00
EEE0
E4E0
F5E0
0E00
0E00
F5E0
E4E0
EEE0
0E00
0E00
0400
ENDCHAR
STARTCHAR plus
ENCODING 43
SWIDTH 562 0
DWIDTH 18 0
BBX 16 16 1 1
BITMAP
0180
0180
0180
0180
0180
0180
0180
FFFF
FFFF
0180
0180
0180
0180
0180
0180
0180
ENDCHAR
STARTCHAR comma
ENCODING 44
SWIDTH 250 0
DWIDTH 8 0
BBX 4 7 2 -3
BITMAP
60
F0
F0
70
30
20
C0
ENDCHAR
STARTCHAR hyphen
ENCODING 45
SWIDTH 312 0
DWIDTH 10 0
BBX 8 2 1 8
BITMAP
FF
FF
ENDCHAR
STARTCHAR period
ENCODING 46
SWIDTH 250 0
DWIDTH 8 0
BBX 4 4 2 0
BITMAP
60
F0
F0
60
ENDCHAR
STARTCHAR slash
ENCODING 47
SWIDTH 250 0
DWIDTH 8 0
BBX 8 24 0 -1
BITMAP
03
03
03
06
06
06
0C
0C
0C
18
18
18
18
30
30
30
60
60
60
60
C0
C0
C0
C0
ENDCHAR
STARTCHAR zero
ENCODING 48
SWIDTH 500 0
DWIDTH 16 0
BBX 14 22 1 0
BITMAP
0780
1CE0
3030
7038
6018
E01C
E01C
E01C
E01C
E01C
E01C
E01C
E01C
E01C
E01C
E01C
E01C
6018
7038
3030
1CE0
0780
ENDCHAR
STARTCHAR one
ENCODING 49
SWIDTH 500 0
DWIDTH 16 0
BBX 8 22 4 0
BITMAP
08
18
38
78
D8
18
18
18
18
18
18
18
18
18
18
18
18
18
18
18
3C
FF
ENDCHAR
STARTCHAR two
ENCODING 50
SWIDTH 500 0
DWIDTH 16 0
BBX 14 22 1 0
BITMAP
0F80
3FE0
61F0
C0F0
8078
0078
0078
0078
0078
0070
0070
00E0
00C0
0180
0300
0600
0C00
1800
3004
7FFC
FFF8
FFF8
ENDCHAR
STARTCHAR three
ENCODING 51
SWIDTH 500 0
DWIDTH 16 0
BBX 13 22 2 0
BITMAP
0F80
3FE0
61E0
40F0
0070
0070
0060
00E0
00C0
0380
1FE0
03F0
00F0
0078
0038
0038
0038
0038
0030
E070
F0E0
3F80
ENDCHAR
STARTCHAR four
ENCODING 52
SWIDTH 500 0
DWIDTH 16 0
BBX 14 22 1 0
BITMAP
0070
0070
00F0
01F0
0370
0370
0670
0C70
1870
1870
3070
6070
C070
FFFC
FFFC
FFFC
0070
0070
0070
0070
0070
0070
ENDCHAR
STARTCHAR five
ENCODING 53
SWIDTH 500 0
DWIDTH 16 0
BBX 13 22 1 0
BITMAP
0FF0
0FF0
0FE0
1000
1000
2000
3800
7F00
7FC0
03E0
00F0
0070
0038
0038
0018
0018
0018
6030
F030
78E0
3FC0
0F00
ENDCHAR
STARTCHAR six
ENCODING 54
SWIDTH 500 0
DWIDTH 16 0
BBX 14 22 1 0
BITMAP
01E0
0700
0C00
1800
3800
3000
7000
6000
E3C0
EFF0
F878
F03C
E01C
E01C
E01C
E01C
E01C
7038
7038
3870
1FE0
0780
ENDCHAR
STARTCHAR seven
ENCODING 55
SWIDTH 500 0
DWIDTH 16 0
BBX 14 22 1 0
BITMAP
7FFC
7FF8
FFF8
8018
0030
0030
0030
0060
0060
0060
00C0
00C0
00C0
0180
0180
0180
0300
0300
0300
0600
0600
0600
ENDCHAR
STARTCHAR eight
ENCODING 56
SWIDTH 500 0
DWIDTH 16 0
BBX 14 22 1 0
BITMAP
0FC0
3870
3030
7018
7018
7018
3818
3C30
1F60
0FE0
1FF0
31F8
6078
603C
C01C
C01C
C00C
C00C
4008
6018
3030
0FC0
ENDCHAR
STARTCHAR nine
ENCODING 57
SWIDTH 500 0
DWIDTH 16 0
BBX 14 22 1 0
BITMAP
0780
1FE0
3870
7038
6018
E01C
E01C
E01C
E01C
E01C
F01C
783C
3FDC
0F1C
0018
0038
0030
0070
0060
00C0
0380
1E00
ENDCHAR
STARTCHAR colon
ENCODING 58
SWIDTH 250 0
DWIDTH 8 0
BBX 4 15 2 0
BITMAP
60
F0
F0
60
00
00
00
00
00
00
00
60
F0
F0
60
ENDCHAR
STARTCHAR semicolon
ENCODING 59
SWIDTH 250 0
DWIDTH 8 0
BBX 4 18 2 -3
BITMAP
60
F0
F0
60
00
00
00
00
00
00
00
00
60
F0
70
30
20
C0
ENDCHAR
STARTCHAR less
ENCODING 60
SWIDTH 562 0
DWIDTH 18 0
BBX 16 16 1 2
BITMAP
0003
000F
003C
00F8
03C0
0F00
3C00
F000
F000
3C00
0F00
03C0
00F0
003C
000F
0003
ENDCHAR
STARTCHAR equal
ENCODING 61
SWIDTH 562 0
DWIDTH 18 0
BBX 16 8 1 7
BITMAP
FFFF
FFFF
0000
0000
0000
0000
FFFF
FFFF
ENDCHAR
STARTCHAR greater
ENCODING 62
SWIDTH 562 0
DWIDTH 18 0
BBX 16 16 1 2
BITMAP
C000
F000
3C00
0F00
03C0
00F0
003C
000F
000F
003C
00F0
03C0
0F00
3C00
F000
C000
ENDCHAR
STARTCHAR question
ENCODING 63
SWIDTH 437 0
DWIDTH 14 0
BBX 11 23 1 0
BITMAP
3F00
61C0
C1C0
C0E0
E0E0
E0E0
40C0
01C0
0180
0300
0300
0200
0600
0400
0400
0400
0000
0000
0000
0C00
1E00
1E00
0C00
ENDCHAR
STARTCHAR at
ENCODING 64
SWIDTH 906 0
DWIDTH 29 0
BBX 27 26 1 -4
BITMAP
007FC000
01C07000
07001C00
0E000600
1C000300
38000180
38000180
700730C0
701CB0C0
703070C0
E0606060
E0606060
E0C06060
E0C0C060
E0C0C060
E0C0C0C0
7061E0C0
70737380
701C1E00
38000000
38000000
1C000000
0E000000
07000C00
01C03000
007FC000
ENDCHAR
STARTCHAR A
ENCODING 65
SWIDTH 687 0
DWIDTH 22 0
BBX 22 22 0 0
BITMAP
002000
002000
003000
007000
007800
00F800
00F800
00FC00
01BC00
019E00
031E00
030F00
030F00
060F00
060780
0FFF80
0C03C0
0C03C0
1801E0
1801E0
3803F0
FE0FFC
ENDCHAR
STARTCHAR B
ENCODING 66
SWIDTH 656 0
DWIDTH 21 0
BBX 19 22 1 0
BITMAP
FFFC00
3E0F00
1C0780
1C0380
1C03C0
1C03C0
1C03C0
1C0380
1C0780
1C0F00
1FFE00
1C0F00
1C0380
1C03C0
1C01C0
1C01E0
1C01E0
1C01E0
1C03C0
1C03C0
3E0F80
FFFE00
ENDCHAR
STARTCHAR C
ENCODING 67
SWIDTH 656 0
DWIDTH 21 0
BBX 19 22 1 0
BITMAP
01F880
078780
1E0180
3C0080
380000
780000
700000
F00000
F00000
F00000
F00000
F00000
F00000
F00000
F00000
780000
780000
3C0020
3E0040
1F8080
07FF00
01FC00
ENDCHAR
STARTCHAR D
ENCODING 68
SWIDTH 687 0
DWIDTH 22 0
BBX 20 22 1 0
BITMAP
FFFC00
3E1F00
1C0780
1C03C0
1C01C0
1C01E0
1C00E0
1C00F0
1C00F0
1C00F0
1C00F0
1C00F0
1C00F0
1C00F0
1C00F0
1C00E0
1C01E0
1C01C0
1C03C0
1C0780
3E1F00
FFFC00
ENDCHAR
STARTCHAR E
ENCODING 69
SWIDTH 625 0
DWIDTH 20 0
BBX 18 22 1 0
BITMAP
FFFF00
3E0300
1C0100
1C0100
1C0000
1C0000
1C0000
1C0400
1C0400
1C0C00
1FFC00
1C0C00
1C0400
1C0400
1C0000
1C0000
1C0000
1C0000
1C0040
1C00C0
3E0380
FFFF80
ENDCHAR
STARTCHAR F
ENCODING 70
SWIDTH 562 0
DWIDTH 18 0
BBX 16 22 1 0
BITMAP
FFFF
3E03
1C01
1C01
1C00
1C00
1C00
1C04
1C04
1C0C
1FFC
1C0C
1C04
1C04
1C00
1C00
1C00
1C00
1C00
1C00
3E00
FF80
ENDCHAR
STARTCHAR G
ENCODING 71
SWIDTH 718 0
DWIDTH 23 0
BBX 21 22 2 0
BITMAP
01F880
078780
1E0180
3C0080
380000
780000
700000
F00000
F00000
F00000
F00000
F00FF8
F003E0
F001C0
F001C0
7801C0
7801C0
3C01C0
3E01C0
1F8180
07FF00
01FC00
ENDCHAR
STARTCHAR H
ENCODING 72
SWIDTH 718 0
DWIDTH 23 0
BBX 21 22 1 0
BITMAP
FF8FF8
3E03E0
1C01C0
1C01C0
1C01C0
1C01C0
1C01C0
1C01C0
1C01C0
1C01C0
1FFFC0
1C01C0
1C01C0
1C01C0
1C01C0
1C01C0
1C01C0
1C01C0
1C01C0
1C01C0
3E03E0
FF8FF8
ENDCHAR
STARTCHAR I
ENCODING 73
SWIDTH 343 0
DWIDTH 11 0
BBX 9 22 1 0
BITMAP
FF80
3E00
1C00
1C00
1C00
1C00
1C00
1C00
1C00
1C00
1C00
1C00
1C00
1C00
1C00
1C00
1C00
1C00
1C00
1C00
3E00
FF80
ENDCHAR
STARTCHAR J
ENCODING 74
SWIDTH 406 0
DWIDTH 13 0
BBX 12 22 0 0
BITMAP
1FF0
07C0
0380
0380
0380
0380
0380
0380
0380
0380
0380
0380
0380
0380
0380
0380
0380
4380
E380
E380
7300
1E00
ENDCHAR
STARTCHAR K
ENCODING 75
SWIDTH 687 0
DWIDTH 22 0
BBX 21 22 1 0
BITMAP
FF8FE0
3E0380
1C0300
1C0600
1C0C00
1C1800
1C3000
1C6000
1CC000
1DE000
1F7000
1E7000
1C3800
1C1C00
1C1C00
1C0E00
1C0700
1C0700
1C0380
1C01C0
3E03E0
FF8FF8
ENDCHAR
STARTCHAR L
ENCODING 76
SWIDTH 625 0
DWIDTH 20 0
BBX 18 22 1 0
BITMAP
FF8000
3E0000
1C0000
1C0000
1C0000
1C0000
1C0000
1C0000
1C0000
1C0000
1C0000
1C0000
1C0000
1C0000
1C0000
1C0000
1C0000
1C0000
1C0040
1C00C0
3E0380
FFFF80
ENDCHAR
STARTCHAR M
ENCODING 77
SWIDTH 875 0
DWIDTH 28 0
BBX 26 22 1 0
BITMAP
FE000FC0
3E000F00
1E001E00
1F001E00
17001E00
17803E00
13803E00
13804E00
13C04E00
11C04E00
11E08E00
10E08E00
10E10E00
10F10E00
10710E00
107A0E00
103A0E00
103C0E00
101C0E00
101C0E00
38081F00
FE087FC0
ENDCHAR
STARTCHAR N
ENCODING 78
SWIDTH 718 0
DWIDTH 23 0
BBX 21 22 1 0
BITMAP
F803F8
3C00E0
1E0040
1E0040
1F0040
178040
13C040
13C040
11E040
10F040
107840
107840
103C40
101E40
100F40
100F40
1007C0
1003C0
1001C0
1001C0
3800C0
FE0040
ENDCHAR
STARTCHAR O
ENCODING 79
SWIDTH 656 0
DWIDTH 21 0
BBX 19 22 1 0
BITMAP
03F800
0F1E00
1C0700
380380
380380
7001C0
7001C0
F001E0
F001E0
F001E0
F001E0
F001E0
F001E0
F001E0
F001E0
7001C0
7001C0
380380
380380
1C0700
0F1E00
03F800
ENDCHAR
STARTCHAR P
ENCODING 80
SWIDTH 593 0
DWIDTH 19 0
BBX 17 22 1 0
BITMAP
FFFC00
3E1F00
1C0F00
1C0780
1C0780
1C0780
1C0780
1C0780
1C0F00
1C1F00
1FFC00
1C0000
1C0000
1C0000
1C0000
1C0000
1C0000
1C0000
1C0000
1C0000
3E0000
FF8000
ENDCHAR
STARTCHAR Q
ENCODING 81
SWIDTH 656 0
DWIDTH 21 0
BBX 19 27 1 -5
BITMAP
03F800
0F1E00
1C0700
380380
380380
7001C0
7001C0
F001E0
F001E0
F001E0
F001E0
F001E0
F001E0
F001E0
F001E0
7001C0
7001C0
380380
380380
1C0700
0F1E00
03F800
00F000
007000
007800
003C00
000F80
ENDCHAR
STARTCHAR R
ENCODING 82
SWIDTH 656 0
DWIDTH 21 0
BBX 20 22 1 0
BITMAP
FFFC00
3E1F00
1C0F00
1C0780
1C0780
1C0780
1C0780
1C0780
1C0F00
1C1F00
1FFC00
1CF000
1C7000
1C3800
1C3C00
1C1C00
1C0E00
1C0F00
1C0700
1C0380
3E03C0
FF81F0
ENDCHAR
STARTCHAR S
ENCODING 83
SWIDTH 500 0
DWIDTH 16 0
BBX 14 22 1 0
BITMAP
0FC8
3878
7018
7008
F008
F000
F000
7800
7E00
3F80
1FC0
07F0
03F8
00F8
007C
003C
803C
803C
C038
E038
F070
9FC0
ENDCHAR
STARTCHAR T
ENCODING 84
SWIDTH 656 0
DWIDTH 21 0
BBX 19 22 1 0
BITMAP
FFFFE0
C0E060
80E020
80E020
00E000
00E000
00E000
00E000
00E000
00E000
00E000
00E000
00E000
00E000
00E000
00E000
00E000
00E000
00E000
00E000
01F000
07FC00
ENDCHAR
STARTCHAR U
ENCODING 85
SWIDTH 718 0
DWIDTH 23 0
BBX 21 22 1 0
BITMAP
FF83F8
3E00E0
1C0040
1C0040
1C0040
1C0040
1C0040
1C0040
1C0040
1C0040
1C0040
1C0040
1C0040
1C0040
1C0040
1C0040
1C0040
1E0040
0E0080
0F0080
07C300
01FC00
ENDCHAR
STARTCHAR V
ENCODING 86
SWIDTH 687 0
DWIDTH 22 0
BBX 22 22 0 0
BITMAP
FF80FC
3E0030
1C0030
1E0020
0E0060
0F0040
070040
0700C0
078080
038180
03C100
01C300
01E200
00E200
00F600
00F400
007C00
007800
003800
003000
001000
001000
ENDCHAR
STARTCHAR W
ENCODING 87
SWIDTH 1031 0
DWIDTH 33 0
BBX 33 22 0 0
BITMAP
FF8FF87F80
3F07E01E00
1E03C00C00
0E01C00800
0F01E01800
0700E01000
0781F01000
0781F03000
0381702000
03C1782000
01C3386000
01E23C4000
00E21C4000
00E61CC000
00F41E8000
00740E8000
007C0F8000
0038070000
0038070000
0010020000
0010020000
0010020000
ENDCHAR
STARTCHAR X
ENCODING 88
SWIDTH 718 0
DWIDTH 23 0
BBX 23 22 0 0
BITMAP
7F81F8
1E0060
0F0040
078080
078100
03C100
01E200
01E400
00F800
007800
007C00
003C00
005E00
00CF00
008F00
010780
0303C0
0203C0
0401E0
0C00F0
3800F8
FF03FE
ENDCHAR
STARTCHAR Y
ENCODING 89
SWIDTH 687 0
DWIDTH 22 0
BBX 22 22 0 0
BITMAP
FF81FC
3E0070
0F0020
070040
078040
03C080
01C100
01E100
00F200
007C00
007C00
003800
003800
003800
003800
003800
003800
003800
003800
003800
007C00
01FF00
ENDCHAR
STARTCHAR Z
ENCODING 90
SWIDTH 656 0
DWIDTH 21 0
BBX 20 22 0 0
BITMAP
3FFFF0
3001E0
2001E0
2003C0
000780
000F00
000F00
001E00
003C00
007800
007800
00F000
01E000
03C000
03C000
078000
0F0000
1E0000
1E0010
3C0030
7800E0
FFFFE0
ENDCHAR
STARTCHAR bracketleft
ENCODING 91
SWIDTH 343 0
DWIDTH 11 0
BBX 7 29 2 -6
BITMAP
FE
F0
E0
E0
E0
E0
E0
E0
E0
E0
E0
E0
E0
E0
E0
E0
E0
E0
E0
E0
E0
E0
E0
E0
E0
E0
E0
F0
FE
ENDCHAR
STARTCHAR backslash
ENCODING 92
SWIDTH 250 0
DWIDTH 8 0
BBX 8 23 0 0
BITMAP
C0
C0
C0
60
60
60
30
30
30
18
18
18
18
0C
0C
0C
06
06
06
06
03
03
03
ENDCHAR
STARTCHAR bracketright
ENCODING 93
SWIDTH 343 0
DWIDTH 11 0
BBX 7 29 2 -6
BITMAP
FE
1E
0E
0E
0E
0E
0E
0E
0E
0E
0E
0E
0E
0E
0E
0E
0E
0E
0E
0E
0E
0E
0E
0E
0E
0E
0E
1E
FE
ENDCHAR
STARTCHAR asciicircum
ENCODING 94
SWIDTH 500 0
DWIDTH 16 0
BBX 14 7 1 16
BITMAP
0300
0780
0FC0
1CE0
3870
7038
E01C
ENDCHAR
STARTCHAR underscore
ENCODING 95
SWIDTH 500 0
DWIDTH 16 0
BBX 16 2 0 -3
BITMAP
FFFF
FFFF
ENDCHAR
STARTCHAR grave
ENCODING 96
SWIDTH 343 0
DWIDTH 11 0
BBX 5 4 4 19
BITMAP
C0
E0
30
08
ENDCHAR
STARTCHAR a
ENCODING 97
SWIDTH 437 0
DWIDTH 14 0
BBX 12 15 1 0
BITMAP
1F00
7180
E1C0
E1C0
41C0
03C0
0FC0
39C0
71C0
E1C0
E1C0
E1C0
F3C0
7DF0
38E0
ENDCHAR
STARTCHAR b
ENCODING 98
SWIDTH 531 0
DWIDTH 17 0
BBX 15 23 1 0
BITMAP
1800
3800
F800
3800
3800
3800
3800
3800
39E0
3EF8
383C
381C
381E
380E
380E
380E
380E
380E
381C
381C
3838
1CF0
07C0
ENDCHAR
STARTCHAR c
ENCODING 99
SWIDTH 437 0
DWIDTH 14 0
BBX 12 15 1 0
BITMAP
0F00
39C0
70E0
60E0
E040
E000
E000
E000
E000
E000
E000
F010
7820
3FC0
1F80
ENDCHAR
STARTCHAR d
ENCODING 100
SWIDTH 531 0
DWIDTH 17 0
BBX 15 23 1 0
BITMAP
000C
001C
007C
001C
001C
001C
001C
001C
0F1C
38DC
703C
601C
E01C
E01C
E01C
E01C
E01C
E01C
F01C
701C
7C3E
3FD8
0F10
ENDCHAR
STARTCHAR e
ENCODING 101
SWIDTH 437 0
DWIDTH 14 0
BBX 12 15 1 0
BITMAP
0E00
3F80
71C0
60C0
E0E0
E0E0
FFE0
E000
E000
E000
F000
7830
7FE0
3FC0
0F00
ENDCHAR
STARTCHAR f
ENCODING 102
SWIDTH 375 0
DWIDTH 12 0
BBX 10 23 1 0
BITMAP
0F80
19C0
38C0
3800
3800
3800
3800
3800
FE00
3800
3800
3800
3800
3800
3800
3800
3800
3800
3800
3800
3800
7C00
FE00
ENDCHAR
STARTCHAR g
ENCODING 103
SWIDTH 468 0
DWIDTH 15 0
BBX 14 23 1 -8
BITMAP
0FCC
39F8
60E0
6070
E070
E070
E060
7060
79C0
3F00
1000
2000
6000
7FC0
7FF0
3FF8
181C
600C
E00C
F018
FFF8
7FF0
1FC0
ENDCHAR
STARTCHAR h
ENCODING 104
SWIDTH 531 0
DWIDTH 17 0
BBX 15 23 1 0
BITMAP
1800
3800
F800
3800
3800
3800
3800
3800
39E0
3BF0
3C78
3838
3838
3838
3838
3838
3838
3838
3838
3838
3838
7C7C
FEFE
ENDCHAR
STARTCHAR i
ENCODING 105
SWIDTH 281 0
DWIDTH 9 0
BBX 7 23 1 0
BITMAP
10
38
38
10
00
00
00
00
08
38
F8
38
38
38
38
38
38
38
38
38
38
7C
FE
ENDCHAR
STARTCHAR j
ENCODING 106
SWIDTH 281 0
DWIDTH 9 0
BBX 6 31 0 -8
BITMAP
08
1C
1C
08
00
00
00
00
04
1C
7C
1C
1C
1C
1C
1C
1C
1C
1C
1C
1C
1C
1C
1C
1C
1C
1C
1C
18
D8
F0
ENDCHAR
STARTCHAR k
ENCODING 107
SWIDTH 500 0
DWIDTH 16 0
BBX 15 23 1 0
BITMAP
1800
3800
F800
3800
3800
3800
3800
3800
38F0
3840
3880
3900
3A00
3C00
3E00
3F00
3B80
39C0
38E0
3870
3838
7C1C
FE7E
ENDCHAR
STARTCHAR l
ENCODING 108
SWIDTH 281 0
DWIDTH 9 0
BBX 7 23 1 0
BITMAP
18
38
F8
38
38
38
38
38
38
38
38
38
38
38
38
38
38
38
38
38
38
7C
FE
ENDCHAR
STARTCHAR m
ENCODING 109
SWIDTH 750 0
DWIDTH 24 0
BBX 23 15 1 0
BITMAP
19E1E0
3BF3F0
FC7C78
383838
383838
383838
383838
383838
383838
383838
383838
383838
383838
7C7C7C
FEFEFE
ENDCHAR
STARTCHAR n
ENCODING 110
SWIDTH 500 0
DWIDTH 16 0
BBX 15 15 1 0
BITMAP
19E0
3BF0
FC78
3838
3838
3838
3838
3838
3838
3838
3838
3838
3838
7C7C
FEFE
ENDCHAR
STARTCHAR o
ENCODING 111
SWIDTH 500 0
DWIDTH 16 0
BBX 14 15 1 0
BITMAP
07C0
1CF0
3078
7038
603C
E01C
E01C
E01C
E01C
E01C
E018
7038
7830
3CE0
0F80
ENDCHAR
STARTCHAR p
ENCODING 112
SWIDTH 531 0
DWIDTH 17 0
BBX 15 23 1 -8
BITMAP
19E0
3EF8
F83C
381C
381E
380E
380E
380E
380E
380E
381C
381C
3838
3CF0
3FC0
3800
3800
3800
3800
3800
3800
7C00
FE00
ENDCHAR
STARTCHAR q
ENCODING 113
SWIDTH 500 0
DWIDTH 16 0
BBX 15 23 1 -8
BITMAP
0F08
38F8
7038
6038
E038
E038
E038
E038
E038
E038
F038
7038
7C38
3FF8
0F38
0038
0038
0038
0038
0038
0038
007C
00FE
ENDCHAR
STARTCHAR r
ENCODING 114
SWIDTH 406 0
DWIDTH 13 0
BBX 11 15 1 0
BITMAP
19C0
3BE0
FCE0
3800
3800
3800
3800
3800
3800
3800
3800
3800
3800
7C00
FE00
ENDCHAR
STARTCHAR s
ENCODING 115
SWIDTH 406 0
DWIDTH 13 0
BBX 10 15 2 0
BITMAP
3E80
7180
E080
E080
F000
7000
7C00
1F00
0780
03C0
81C0
81C0
C1C0
F380
9F00
ENDCHAR
STARTCHAR t
ENCODING 116
SWIDTH 312 0
DWIDTH 10 0
BBX 9 20 1 0
BITMAP
0800
0800
1800
3800
3800
FF00
3800
3800
3800
3800
3800
3800
3800
3800
3800
3800
3800
3880
1F00
0E00
ENDCHAR
STARTCHAR u
ENCODING 117
SWIDTH 500 0
DWIDTH 16 0
BBX 15 15 1 0
BITMAP
F078
7038
7038
7038
7038
7038
7038
7038
7038
7038
7038
7038
387E
1FB8
0F30
ENDCHAR
STARTCHAR v
ENCODING 118
SWIDTH 562 0
DWIDTH 18 0
BBX 16 15 1 0
BITMAP
FE3F
380C
3808
1C08
1C10
0E10
0E10
0720
0720
03A0
03C0
01C0
0180
0080
0080
ENDCHAR
STARTCHAR w
ENCODING 119
SWIDTH 812 0
DWIDTH 26 0
BBX 24 15 1 0
BITMAP
FE7F1F
381C04
381C04
1C1E08
1C1E08
1C1F08
0E2710
0E2790
0743A0
0743A0
07C3E0
0381C0
0381C0
010080
010080
ENDCHAR
STARTCHAR x
ENCODING 120
SWIDTH 500 0
DWIDTH 16 0
BBX 15 15 1 0
BITMAP
FC7C
3830
1C60
1C40
0EC0
0780
0780
0380
07C0
05C0
0CE0
0870
1870
3038
FCFE
ENDCHAR
STARTCHAR y
ENCODING 121
SWIDTH 562 0
DWIDTH 18 0
BBX 16 23 1 -8
BITMAP
FE3F
380C
3808
1C08
1C10
0E10
0E10
0720
0720
03A0
03C0
01C0
0180
0080
0080
0100
0100
0200
0200
0400
6C00
F800
7000
ENDCHAR
STARTCHAR z
ENCODING 122
SWIDTH 468 0
DWIDTH 15 0
BBX 13 15 1 0
BITMAP
7FF8
6070
40E0
40E0
01C0
0380
0380
0700
0E00
0E00
1C00
3808
3808
7018
FFF8
ENDCHAR
STARTCHAR braceleft
ENCODING 123
SWIDTH 406 0
DWIDTH 13 0
BBX 10 30 2 -6
BITMAP
01C0
0700
0600
0E00
0E00
0E00
0E00
0E00
0E00
0E00
0E00
1C00
1C00
3800
E000
3800
1C00
1C00
0E00
0E00
0E00
0E00
0E00
0E00
0E00
0E00
0E00
0600
0700
01C0
ENDCHAR
STARTCHAR bar
ENCODING 124
SWIDTH 281 0
DWIDTH 9 0
BBX 3 24 3 -1
BITMAP
E0
E0
E0
E0
E0
E0
E0
E0
E0
E0
E0
E0
E0
E0
E0
E0
E0
E0
E0
E0
E0
E0
E0
E0
ENDCHAR
STARTCHAR braceright
ENCODING 125
SWIDTH 406 0
DWIDTH 13 0
BBX 10 30 2 -6
BITMAP
E000
3800
1800
1C00
1C00
1C00
1C00
1C00
1C00
1C00
1C00
0E00
0E00
0700
01C0
0700
0E00
0E00
1C00
1C00
1C00
1C00
1C00
1C00
1C00
1C00
1C00
1800
3800
E000
ENDCHAR
STARTCHAR asciitilde
ENCODING 126
SWIDTH 500 0
DWIDTH 16 0
BBX 13 4 1 19
BITMAP
3C08
7F18
C7F0
81E0
ENDCHAR
STARTCHAR not
ENCODING 127
SWIDTH 281 0
DWIDTH 9 0
BBX 8 5 1 5
BITMAP
FF
FF
03
03
03
ENDCHAR
STARTCHAR afii10051
ENCODING 128
SWIDTH 500 0
DWIDTH 16 0
BBX 14 23 1 0
BITMAP
FFC0
FFC0
DCC0
9C40
1C00
1C00
1C00
1C00
1CF0
1DF8
1E3C
1C1C
1C1C
1C1C
1C1C
1C1C
1C1C
1C1C
1C1C
1CDC
1CDC
3EF8
7F70
ENDCHAR
STARTCHAR afii10052
ENCODING 129
SWIDTH 593 0
DWIDTH 19 0
BBX 17 25 1 0
BITMAP
00F000
00E000
018000
FFFF80
3E0180
1C0080
1C0080
1C0000
1C0000
1C0000
1C0000
1C0000
1C0000
1C0000
1C0000
1C0000
1C0000
1C0000
1C0000
1C0000
1C0000
1C0000
1C0000
3E0000
FFC000
ENDCHAR
STARTCHAR cedilla
ENCODING 130
SWIDTH 250 0
DWIDTH 8 0
BBX 6 7 2 -5
BITMAP
40
60
38
1C
1C
38
E0
ENDCHAR
STARTCHAR afii10100
ENCODING 131
SWIDTH 437 0
DWIDTH 14 0
BBX 12 20 1 0
BITMAP
01C0
0380
0300
0600
0000
FFF0
7C30
3810
3810
3800
3800
3800
3800
3800
3800
3800
3800
3800
7C00
FE00
ENDCHAR
STARTCHAR quotedblbase
ENCODING 132
SWIDTH 375 0
DWIDTH 12 0
BBX 8 7 2 -3
BITMAP
42
E7
E7
E7
63
63
C6
ENDCHAR
STARTCHAR ellipsis
ENCODING 133
SWIDTH 687 0
DWIDTH 22 0
BBX 16 4 2 0
BITMAP
6186
F3CF
F3CF
6186
ENDCHAR
STARTCHAR dagger
ENCODING 134
SWIDTH 562 0
DWIDTH 18 0
BBX 16 21 1 0
BITMAP
0180
03C0
0660
03C0
0180
318C
318C
FFFF
FFFF
318C
318C
0180
0180
03C0
03C0
03C0
03C0
03C0
03C0
0180
0180
ENDCHAR
STARTCHAR section
ENCODING 135
SWIDTH 375 0
DWIDTH 12 0
BBX 9 19 2 0
BITMAP
3E00
7F00
C180
C000
C000
7E00
7F00
E380
C180
C180
C180
E380
7F00
3F00
0180
0180
C180
7F00
3E00
ENDCHAR
STARTCHAR Euro
ENCODING 136
SWIDTH 625 0
DWIDTH 20 0
BBX 20 22 0 0
BITMAP
00FC40
03C3C0
0F00C0
1E0040
1C0000
3C0000
380000
780000
FFE000
FFE000
780000
780000
FFE000
FFE000
780000
3C0000
3C0000
1E0010
1F0020
0FC040
03FF80
00FE00
ENDCHAR
STARTCHAR dieresis
ENCODING 137
SWIDTH 375 0
DWIDTH 12 0
BBX 8 5 2 18
BITMAP
42
E7
E7
E7
42
ENDCHAR
STARTCHAR afii10058
ENCODING 138
SWIDTH 906 0
DWIDTH 29 0
BBX 27 22 1 0
BITMAP
0FFFC000
078F8000
03078000
03078000
03078000
03078000
03078000
03078000
03078000
0307FE00
03078F00
03078380
030783C0
030781C0
030781E0
030781E0
030781E0
030781E0
630783C0
F30783C0
F60FCF80
7C3FFE00
ENDCHAR
STARTCHAR guilsinglleft
ENCODING 139
SWIDTH 531 0
DWIDTH 17 0
BBX 14 16 3 2
BITMAP
000C
003C
00F0
03E0
0F00
3C00
7000
C000
C000
7000
3C00
0F00
03C0
00F0
003C
000C
ENDCHAR
STARTCHAR afii10059
ENCODING 140
SWIDTH 875 0
DWIDTH 28 0
BBX 26 22 1 0
BITMAP
FFBFE000
3E0F8000
1C070000
1C070000
1C070000
1C070000
1C070000
1C070000
1C070000
1FFFFC00
1FFFFE00
1C070700
1C070780
1C070380
1C0703C0
1C0703C0
1C0703C0
1C0703C0
1C070780
1C070780
3E0F9F00
FFBFFC00
ENDCHAR
STARTCHAR afii10061
ENCODING 141
SWIDTH 718 0
DWIDTH 23 0
BBX 21 25 1 0
BITMAP
000F00
000E00
001C00
FF98F0
3E01F8
1C0378
1C0630
1C0C00
1C1800
1C3000
1C6000
1CC000
1DE000
1F7000
1E7000
1C3800
1C1C00
1C1C00
1C0E00
1C0700
1C0700
1C0380
1C01C0
3E03E0
FF8FF8
ENDCHAR
STARTCHAR afii10060
ENCODING 142
SWIDTH 531 0
DWIDTH 17 0
BBX 16 23 1 0
BITMAP
FFC0
FFC0
DCC0
9C40
1C00
1C00
1C00
1C00
1CF0
1DF8
1E3C
1C1C
1C1C
1C1C
1C1C
1C1C
1C1C
1C1C
1C1C
1C1C
1C1C
3E3E
7F7F
ENDCHAR
STARTCHAR afii10145
ENCODING 143
SWIDTH 718 0
DWIDTH 23 0
BBX 21 26 1 -4
BITMAP
FF8FF8
3E03E0
1C01C0
1C01C0
1C01C0
1C01C0
1C01C0
1C01C0
1C01C0
1C01C0
1C01C0
1C01C0
1C01C0
1C01C0
1C01C0
1C01C0
1C01C0
1C01C0
1C01C0
1C01C0
3E03E0
FFFFF0
00F800
007000
007000
002000
ENDCHAR
STARTCHAR afii10099
ENCODING 144
SWIDTH 437 0
DWIDTH 14 0
BBX 13 26 1 -3
BITMAP
1800
3C00
FF00
FF80
3800
3800
3800
3800
39E0
3BF0
3C78
3838
3838
3838
3838
3838
3838
3838
3838
3838
3838
7C38
FE70
0070
00E0
01C0
ENDCHAR
STARTCHAR quoteleft
ENCODING 145
SWIDTH 281 0
DWIDTH 9 0
BBX 3 7 3 16
BITMAP
60
C0
C0
E0
E0
E0
40
ENDCHAR
STARTCHAR quoteright
ENCODING 146
SWIDTH 281 0
DWIDTH 9 0
BBX 3 7 3 16
BITMAP
40
E0
E0
E0
60
60
C0
ENDCHAR
STARTCHAR quotedblleft
ENCODING 147
SWIDTH 375 0
DWIDTH 12 0
BBX 8 7 2 16
BITMAP
63
C6
C6
E7
E7
E7
42
ENDCHAR
STARTCHAR quotedblright
ENCODING 148
SWIDTH 375 0
DWIDTH 12 0
BBX 8 7 2 16
BITMAP
42
E7
E7
E7
63
63
C6
ENDCHAR
STARTCHAR bullet
ENCODING 149
SWIDTH 343 0
DWIDTH 11 0
BBX 8 8 2 4
BITMAP
3C
7E
FF
FF
FF
FF
7E
3C
ENDCHAR
STARTCHAR endash
ENCODING 150
SWIDTH 343 0
DWIDTH 11 0
BBX 10 2 1 8
BITMAP
FFC0
FFC0
ENDCHAR
STARTCHAR emdash
ENCODING 151
SWIDTH 468 0
DWIDTH 15 0
BBX 14 2 1 8
BITMAP
FFFC
FFFC
ENDCHAR
STARTCHAR sterling
ENCODING 152
SWIDTH 593 0
DWIDTH 19 0
BBX 17 22 2 0
BITMAP
03F000
07F800
0E1800
0E0C00
0E0C00
0E1C00
0E1800
0E0C00
0E0000
0E0000
0E0000
3FC000
3FC000
0E0000
0E0000
0E0000
0E0000
0E0000
0E0080
1F8180
FFFF00
E0FE00
ENDCHAR
STARTCHAR periodcentered
ENCODING 153
SWIDTH 250 0
DWIDTH 8 0
BBX 4 4 2 7
BITMAP
60
F0
F0
60
ENDCHAR
STARTCHAR afii10106
ENCODING 154
SWIDTH 687 0
DWIDTH 22 0
BBX 20 15 1 0
BITMAP
1FFE00
0F7C00
063800
063800
063800
063800
063F80
063FE0
0638F0
063870
063870
063870
E638F0
EC7FE0
78FF80
ENDCHAR
STARTCHAR guilsinglright
ENCODING 155
SWIDTH 468 0
DWIDTH 15 0
BBX 14 16 1 2
BITMAP
C000
F000
3C00
0F00
03C0
00F0
0038
000C
000C
0038
00F0
03C0
0F00
3C00
F000
C000
ENDCHAR
STARTCHAR afii10107
ENCODING 156
SWIDTH 687 0
DWIDTH 22 0
BBX 20 15 1 0
BITMAP
FEFE00
7C7C00
383800
383800
383800
383800
3FFF80
3FFFE0
3838F0
383870
383870
383870
3838F0
7C7FE0
FEFF80
ENDCHAR
STARTCHAR afii10109
ENCODING 157
SWIDTH 562 0
DWIDTH 18 0
BBX 16 18 1 0
BITMAP
0070
0070
00C0
FE9E
7C2F
384E
3880
3900
3E00
3E00
3F00
3B80
39C0
38E0
3870
3838
7C1C
FE7E
ENDCHAR
STARTCHAR afii10108
ENCODING 158
SWIDTH 531 0
DWIDTH 17 0
BBX 15 23 1 0
BITMAP
1800
3C00
FF00
FF80
3800
3800
3800
3800
39E0
3BF0
3C78
3838
3838
3838
3838
3838
3838
3838
3838
3838
3838
7C7C
FEFE
ENDCHAR
STARTCHAR afii10193
ENCODING 159
SWIDTH 593 0
DWIDTH 19 0
BBX 17 18 1 -3
BITMAP
FE3F80
7C1F00
380E00
380E00
380E00
380E00
380E00
380E00
380E00
380E00
380E00
380E00
380E00
7C1F00
FFFF80
03E000
01C000
008000
ENDCHAR
STARTCHAR space
ENCODING 160
SWIDTH 250 0
DWIDTH 8 0
BBX 0 0 0 0
BITMAP
ENDCHAR
STARTCHAR afii10196
ENCODING 161
SWIDTH 562 0
DWIDTH 18 0
BBX 16 15 1 0
BITMAP
F000
3806
380F
1C09
1C10
0E10
0E10
0720
0720
03A0
03C0
01C0
0180
0080
0080
ENDCHAR
STARTCHAR afii10194
ENCODING 162
SWIDTH 562 0
DWIDTH 18 0
BBX 16 21 1 0
BITMAP
0700
0F00
1F00
0700
0700
0700
FFF0
CFB0
C710
8710
8700
0700
07F8
07FE
070F
0707
0707
0707
0707
0FFE
1FF8
ENDCHAR
STARTCHAR afii10071
ENCODING 163
SWIDTH 437 0
DWIDTH 14 0
BBX 12 20 1 0
BITMAP
2080
71C0
71C0
2080
0000
0E00
3F80
71C0
60C0
E0E0
E0E0
FFE0
E000
E000
E000
F000
7830
7FE0
3FC0
0F00
ENDCHAR
STARTCHAR afii10101
ENCODING 164
SWIDTH 437 0
DWIDTH 14 0
BBX 12 15 1 0
BITMAP
1FC0
3FE0
7070
E030
E010
E000
E080
FF80
E080
E000
E010
E030
7070
3FE0
1F80
ENDCHAR
STARTCHAR afii10102
ENCODING 165
SWIDTH 406 0
DWIDTH 13 0
BBX 10 15 2 0
BITMAP
3E80
7180
E080
E080
F000
7000
7C00
1F00
0780
03C0
81C0
81C0
C1C0
F380
9F00
ENDCHAR
STARTCHAR afii10103
ENCODING 166
SWIDTH 281 0
DWIDTH 9 0
BBX 7 23 1 0
BITMAP
10
38
38
10
00
00
00
08
38
F8
38
38
38
38
38
38
38
38
38
38
38
7C
FE
ENDCHAR
STARTCHAR afii10104
ENCODING 167
SWIDTH 281 0
DWIDTH 9 0
BBX 7 23 1 0
BITMAP
44
EE
EE
44
00
00
00
08
38
F8
38
38
38
38
38
38
38
38
38
38
38
7C
FE
ENDCHAR
STARTCHAR afii10105
ENCODING 168
SWIDTH 281 0
DWIDTH 9 0
BBX 6 31 0 -8
BITMAP
08
1C
1C
08
00
00
00
04
1C
7C
1C
1C
1C
1C
1C
1C
1C
1C
1C
1C
1C
1C
1C
1C
1C
1C
1C
1C
18
D8
F0
ENDCHAR
STARTCHAR registered
ENCODING 169
SWIDTH 750 0
DWIDTH 24 0
BBX 22 22 1 0
BITMAP
00FC00
03FF00
0F03C0
1C00E0
380070
33F830
618C18
618618
E1861C
C1860C
C18C0C
C1F80C
C1E00C
E1B01C
619818
618C18
318630
3BCF70
1C00E0
0F03C0
03FF00
00FC00
ENDCHAR
STARTCHAR trademark
ENCODING 170
SWIDTH 656 0
DWIDTH 21 0
BBX 20 8 1 16
BITMAP
FF7070
FF38E0
993DE0
183760
183260
183060
183060
3C7CF0
ENDCHAR
STARTCHAR guillemotleft
ENCODING 171
SWIDTH 750 0
DWIDTH 24 0
BBX 23 16 1 2
BITMAP
000306
000F1E
003C78
00F9E0
03C780
0F1E00
3C7800
F1E000
F1E000
3C7800
0F1E00
03C780
00F1E0
003C78
000F1E
000306
ENDCHAR
STARTCHAR afii10195
ENCODING 172
SWIDTH 531 0
DWIDTH 17 0
BBX 15 15 1 0
BITMAP
07C0
1C70
3838
701C
600C
E00E
FFFE
FFFE
E00E
E00E
701C
701C
3838
1C70
07C0
ENDCHAR
STARTCHAR afii10098
ENCODING 173
SWIDTH 437 0
DWIDTH 14 0
BBX 12 18 1 0
BITMAP
0010
0010
0030
FFF0
7C00
3800
3800
3800
3800
3800
3800
3800
3800
3800
3800
3800
7C00
FE00
ENDCHAR
STARTCHAR afii10110
ENCODING 174
SWIDTH 531 0
DWIDTH 17 0
BBX 16 28 1 -8
BITMAP
0C18
0630
03E0
01C0
0000
FE3F
380C
3808
1C08
1C10
0E10
0E10
0720
0720
03A0
03C0
01C0
0180
0080
0080
0100
0100
0200
0200
6400
F400
F800
7000
ENDCHAR
STARTCHAR acute
ENCODING 175
SWIDTH 281 0
DWIDTH 9 0
BBX 5 7 6 16
BITMAP
10
38
78
70
60
C0
80
ENDCHAR
STARTCHAR degree
ENCODING 176
SWIDTH 343 0
DWIDTH 11 0
BBX 8 8 2 15
BITMAP
3C
7E
E7
C3
C3
E7
7E
3C
ENDCHAR
STARTCHAR afii10148
ENCODING 177
SWIDTH 750 0
DWIDTH 24 0
BBX 23 22 0 0
BITMAP
F80000
3C001C
1C003E
1E0026
0E0064
0F0040
070040
0700C0
078080
038180
03C100
01C300
01E200
00E200
00F600
00F400
007C00
007800
003800
003000
001000
001000
ENDCHAR
STARTCHAR afii10146
ENCODING 178
SWIDTH 750 0
DWIDTH 24 0
BBX 22 26 1 0
BITMAP
0F8000
1F8000
038000
038000
FFFE00
E7CE00
C38600
838200
838200
038000
038000
038000
038000
03FFC0
03C1E0
038070
038078
038038
03803C
03803C
03803C
03803C
038078
038078
07C1F0
1FFFC0
ENDCHAR
STARTCHAR afii10023
ENCODING 179
SWIDTH 625 0
DWIDTH 20 0
BBX 18 26 1 0
BITMAP
181800
3C3C00
181800
000000
FFFF00
3E0300
1C0100
1C0100
1C0000
1C0000
1C0000
1C0400
1C0400
1C0C00
1FFC00
1C0C00
1C0400
1C0400
1C0000
1C0000
1C0000
1C0000
1C0040
1C00C0
3E0380
FFFF80
ENDCHAR
STARTCHAR afii10053
ENCODING 180
SWIDTH 656 0
DWIDTH 21 0
BBX 17 22 3 0
BITMAP
0FF880
3C0F80
780180
F00080
F00080
F00000
F00000
F00000
F00400
F00C00
FFFC00
F00C00
F00400
F00000
F00000
F00000
F00000
F00080
F00080
780180
3E0F80
0FF880
ENDCHAR
STARTCHAR afii10054
ENCODING 181
SWIDTH 500 0
DWIDTH 16 0
BBX 14 22 1 0
BITMAP
0FC8
3878
7018
7008
F008
F000
F000
7800
7E00
3F80
1FC0
07F0
03F8
00F8
007C
003C
803C
803C
C038
E038
F070
9FC0
ENDCHAR
STARTCHAR afii10055
ENCODING 182
SWIDTH 343 0
DWIDTH 11 0
BBX 9 22 1 0
BITMAP
FF80
3E00
1C00
1C00
1C00
1C00
1C00
1C00
1C00
1C00
1C00
1C00
1C00
1C00
1C00
1C00
1C00
1C00
1C00
1C00
3E00
FF80
ENDCHAR
STARTCHAR afii10056
ENCODING 183
SWIDTH 343 0
DWIDTH 11 0
BBX 9 26 1 0
BITMAP
2200
7700
2200
0000
FF80
3E00
1C00
1C00
1C00
1C00
1C00
1C00
1C00
1C00
1C00
1C00
1C00
1C00
1C00
1C00
1C00
1C00
1C00
1C00
3E00
FF80
ENDCHAR
STARTCHAR afii10057
ENCODING 184
SWIDTH 406 0
DWIDTH 13 0
BBX 12 22 0 0
BITMAP
1FF0
07C0
0380
0380
0380
0380
0380
0380
0380
0380
0380
0380
0380
0380
0380
0380
0380
4380
E380
E380
7300
1E00
ENDCHAR
STARTCHAR afii61352
ENCODING 185
SWIDTH 718 0
DWIDTH 23 0
BBX 21 22 1 0
BITMAP
F81FB0
3C0748
1C0248
1E0248
1F0248
170230
138200
13C200
11C278
11E278
10E200
107200
107A00
103A00
103E00
101E00
100E00
100E00
100600
100600
380200
FE0200
ENDCHAR
STARTCHAR cent
ENCODING 186
SWIDTH 437 0
DWIDTH 14 0
BBX 12 19 1 -2
BITMAP
0600
0600
0F00
3FC0
76E0
66E0
E640
E600
E600
E600
E600
E600
E600
F630
7E70
3FE0
1FC0
0600
0600
ENDCHAR
STARTCHAR guillemotright
ENCODING 187
SWIDTH 750 0
DWIDTH 24 0
BBX 23 16 1 2
BITMAP
C18000
F1E000
3C7800
0F3E00
03C780
00F1E0
003C78
000F1E
000F1E
003C78
00F1E0
03C780
0F1E00
3C7800
F1E000
C18000
ENDCHAR
STARTCHAR afii10147
ENCODING 188
SWIDTH 656 0
DWIDTH 21 0
BBX 19 22 1 0
BITMAP
03F800
0F1E00
1C0700
380380
380380
7001C0
7001C0
F001E0
F001E0
FFFFE0
FFFFE0
F001E0
F001E0
F001E0
F001E0
7001C0
7001C0
380380
380380
1C0700
0F1E00
03F800
ENDCHAR
STARTCHAR afii10050
ENCODING 189
SWIDTH 593 0
DWIDTH 19 0
BBX 17 25 1 0
BITMAP
000080
000080
000180
FFFF80
3E0000
1C0000
1C0000
1C0000
1C0000
1C0000
1C0000
1C0000
1C0000
1C0000
1C0000
1C0000
1C0000
1C0000
1C0000
1C0000
1C0000
1C0000
1C0000
3E0000
FFC000
ENDCHAR
STARTCHAR afii10062
ENCODING 190
SWIDTH 656 0
DWIDTH 21 0
BBX 20 26 1 0
BITMAP
030600
018C00
00F800
007000
FE07F0
7C03E0
180180
1C0180
0C0300
0E0300
060600
070600
030C00
038C00
019800
01D800
00F000
00F000
006000
006000
00C000
00C000
318000
798000
7B0000
3E0000
ENDCHAR
STARTCHAR copyright
ENCODING 191
SWIDTH 750 0
DWIDTH 24 0
BBX 22 22 1 0
BITMAP
00FC00
03FF00
0F03C0
1C00E0
380070
300030
607D18
61E718
E1831C
C3810C
C3000C
C3000C
C3800C
E1811C
61E618
607C18
300030
380070
1C00E0
0F03C0
03FF00
00FC00
ENDCHAR
STARTCHAR afii10096
ENCODING 192
SWIDTH 750 0
DWIDTH 24 0
BBX 22 15 1 0
BITMAP
FE0F80
7C38E0
387070
38E038
38C018
39C01C
3FC01C
3FC01C
39C01C
39C01C
38E038
38E038
387070
7C38E0
FE0F80
ENDCHAR
STARTCHAR afii10065
ENCODING 193
SWIDTH 468 0
DWIDTH 15 0
BBX 13 15 1 0
BITMAP
1F80
70C0
E0E0
E0E0
40E0
01E0
0FE0
38E0
70E0
E0E0
E0E0
E0E0
F0E0
7F78
3C30
ENDCHAR
STARTCHAR afii10066
ENCODING 194
SWIDTH 468 0
DWIDTH 15 0
BBX 13 22 1 0
BITMAP
0008
0FF8
3FE0
7000
6000
E000
EF80
FFE0
FFF0
F070
E038
E038
E038
E038
E038
E038
E038
E030
E070
70E0
7FC0
1F00
ENDCHAR
STARTCHAR afii10088
ENCODING 195
SWIDTH 593 0
DWIDTH 19 0
BBX 17 18 1 -3
BITMAP
FE3F80
7C1F00
380E00
380E00
380E00
380E00
380E00
380E00
380E00
380E00
380E00
380E00
380E00
7C1E00
FFFF80
000180
000080
000080
ENDCHAR
STARTCHAR afii10069
ENCODING 196
SWIDTH 531 0
DWIDTH 17 0
BBX 15 18 1 -3
BITMAP
FFFE
787C
3038
3038
3038
3038
3038
3038
3038
3038
3038
3038
3038
707C
FFFE
C006
8002
8002
ENDCHAR
STARTCHAR afii10070
ENCODING 197
SWIDTH 437 0
DWIDTH 14 0
BBX 12 15 1 0
BITMAP
0E00
3F80
71C0
60C0
E0E0
E0E0
FFE0
E000
E000
E000
E000
7030
7860
3FC0
0F00
ENDCHAR
STARTCHAR afii10086
ENCODING 198
SWIDTH 593 0
DWIDTH 19 0
BBX 17 26 1 -8
BITMAP
03E000
01C000
01C000
07F000
19DC00
31CE00
61C700
61C700
E1C380
E1C380
E1C380
E1C380
E1C380
71C300
71C300
39C600
1DCC00
07F000
01C000
01C000
01C000
01C000
01C000
01C000
03E000
07F000
ENDCHAR
STARTCHAR afii10068
ENCODING 199
SWIDTH 437 0
DWIDTH 14 0
BBX 12 15 1 0
BITMAP
FFF0
7C30
3810
3810
3800
3800
3800
3800
3800
3800
3800
3800
3800
7C00
FE00
ENDCHAR
STARTCHAR afii10087
ENCODING 200
SWIDTH 531 0
DWIDTH 17 0
BBX 15 15 1 0
BITMAP
FC7C
3830
1C60
1C40
0EC0
0780
0780
0380
07C0
05C0
0CE0
0870
1870
3038
FCFE
ENDCHAR
STARTCHAR afii10074
ENCODING 201
SWIDTH 593 0
DWIDTH 19 0
BBX 17 15 1 0
BITMAP
FE1F80
7C1F00
383E00
382E00
386E00
384E00
38CE00
388E00
398E00
390E00
3B0E00
3A0E00
3E0E00
7C1F00
FC3F80
ENDCHAR
STARTCHAR afii10075
ENCODING 202
SWIDTH 593 0
DWIDTH 19 0
BBX 17 19 1 0
BITMAP
063000
063000
03E000
000000
FE1F80
7C1F00
383E00
382E00
386E00
384E00
38CE00
388E00
398E00
390E00
3B0E00
3A0E00
3E0E00
7C1F00
FC3F80
ENDCHAR
STARTCHAR afii10076
ENCODING 203
SWIDTH 562 0
DWIDTH 18 0
BBX 16 15 1 0
BITMAP
FE1E
7C2F
384E
3880
3900
3E00
3E00
3F00
3B80
39C0
38E0
3870
3838
7C1C
FE7E
ENDCHAR
STARTCHAR afii10077
ENCODING 204
SWIDTH 593 0
DWIDTH 19 0
BBX 17 15 1 0
BITMAP
1FFF80
0F1F00
060E00
060E00
060E00
060E00
060E00
060E00
060E00
060E00
060E00
060E00
E60E00
EC1F00
783F80
ENDCHAR
STARTCHAR afii10078
ENCODING 205
SWIDTH 718 0
DWIDTH 23 0
BBX 21 15 1 0
BITMAP
F001F8
7801F0
3803E0
3C02E0
2C06E0
2E04E0
260CE0
2708E0
2318E0
2390E0
21B0E0
21E0E0
20E0E0
70C1F0
F843F8
ENDCHAR
STARTCHAR afii10079
ENCODING 206
SWIDTH 593 0
DWIDTH 19 0
BBX 17 15 1 0
BITMAP
FE3F80
7C1F00
380E00
380E00
380E00
380E00
3FFE00
3FFE00
380E00
380E00
380E00
380E00
380E00
7C1F00
FE3F80
ENDCHAR
STARTCHAR afii10080
ENCODING 207
SWIDTH 531 0
DWIDTH 17 0
BBX 15 15 1 0
BITMAP
07C0
1CF0
3838
701C
701C
E00E
E00E
E00E
E00E
E00E
701C
701C
3838
1E70
07C0
ENDCHAR
STARTCHAR afii10081
ENCODING 208
SWIDTH 593 0
DWIDTH 19 0
BBX 17 15 1 0
BITMAP
FFFF80
7C1F00
380E00
380E00
380E00
380E00
380E00
380E00
380E00
380E00
380E00
380E00
380E00
7C1F00
FE3F80
ENDCHAR
STARTCHAR afii10097
ENCODING 209
SWIDTH 593 0
DWIDTH 19 0
BBX 17 15 1 0
BITMAP
07FF80
0E0F00
1C0E00
1C0E00
1C0E00
1C0E00
0E0E00
07FE00
01CE00
038E00
070E00
0E0E00
1C0E00
381F00
F83F80
ENDCHAR
STARTCHAR afii10082
ENCODING 210
SWIDTH 531 0
DWIDTH 17 0
BBX 15 23 1 -8
BITMAP
FFE0
7FF8
383C
381C
381E
380E
380E
380E
380E
380E
381C
381C
3838
38F0
3FC0
3800
3800
3800
3800
3800
3800
7C00
FE00
ENDCHAR
STARTCHAR afii10083
ENCODING 211
SWIDTH 406 0
DWIDTH 13 0
BBX 12 15 1 0
BITMAP
0F00
39C0
70E0
60E0
E040
E000
E000
E000
E000
E000
F000
7810
7C20
3FC0
0F80
ENDCHAR
STARTCHAR afii10084
ENCODING 212
SWIDTH 531 0
DWIDTH 17 0
BBX 15 15 1 0
BITMAP
FFFE
C7C6
8382
8382
0380
0380
0380
0380
0380
0380
0380
0380
0380
07C0
0FE0
ENDCHAR
STARTCHAR afii10085
ENCODING 213
SWIDTH 531 0
DWIDTH 17 0
BBX 16 23 1 -8
BITMAP
FE3F
380C
3808
1C08
1C10
0E10
0E10
0720
0720
03A0
03C0
01C0
01C0
0080
0080
0100
0100
0200
0200
6400
F400
F800
7000
ENDCHAR
STARTCHAR afii10072
ENCODING 214
SWIDTH 843 0
DWIDTH 27 0
BBX 25 15 1 0
BITMAP
787F0F00
F43E1780
741C1700
021C2000
011C4000
009C8000
007F0000
00FF8000
01DDC000
039CE000
071C7000
0E1C3800
1C1C1C00
383E0E00
FE7F3F80
ENDCHAR
STARTCHAR afii10067
ENCODING 215
SWIDTH 468 0
DWIDTH 15 0
BBX 13 15 1 0
BITMAP
FFC0
7FE0
38F0
3870
3870
3870
3FE0
3FE0
3870
3838
3838
3838
3838
7FF0
FFE0
ENDCHAR
STARTCHAR afii10094
ENCODING 216
SWIDTH 468 0
DWIDTH 15 0
BBX 13 15 1 0
BITMAP
FE00
7C00
3800
3800
3800
3800
3FC0
3FF0
3878
3838
3838
3838
3838
7FF0
FFC0
ENDCHAR
STARTCHAR afii10093
ENCODING 217
SWIDTH 687 0
DWIDTH 22 0
BBX 20 15 1 0
BITMAP
FE07F0
7C03E0
3801C0
3801C0
3801C0
3801C0
3FC1C0
3FF1C0
3879C0
3839C0
3839C0
3839C0
3839C0
7FF3E0
FFC7F0
ENDCHAR
STARTCHAR afii10073
ENCODING 218
SWIDTH 406 0
DWIDTH 13 0
BBX 11 15 1 0
BITMAP
3F80
7FC0
E1E0
C0E0
00E0
01E0
1FC0
1F80
01C0
00E0
00E0
C0E0
E1E0
7FC0
1F80
ENDCHAR
STARTCHAR afii10090
ENCODING 219
SWIDTH 843 0
DWIDTH 27 0
BBX 25 15 1 0
BITMAP
FE7F3F80
7C3E1F00
381C0E00
381C0E00
381C0E00
381C0E00
381C0E00
381C0E00
381C0E00
381C0E00
381C0E00
381C0E00
381C0E00
7C3E1F00
FFFFFF80
ENDCHAR
STARTCHAR afii10095
ENCODING 220
SWIDTH 437 0
DWIDTH 14 0
BBX 12 15 1 0
BITMAP
3F80
7FC0
E0E0
C070
8070
0070
1070
1FF0
1070
0070
8070
C070
E0E0
7FC0
1F80
ENDCHAR
STARTCHAR afii10091
ENCODING 221
SWIDTH 843 0
DWIDTH 27 0
BBX 25 18 1 -3
BITMAP
FE7F3F80
7C3E1F00
381C0E00
381C0E00
381C0E00
381C0E00
381C0E00
381C0E00
381C0E00
381C0E00
381C0E00
381C0E00
381C0E00
7C3E1E00
FFFFFF80
00000180
00000080
00000080
ENDCHAR
STARTCHAR afii10089
ENCODING 222
SWIDTH 562 0
DWIDTH 18 0
BBX 16 15 1 0
BITMAP
FE7F
7C3E
381C
381C
381C
381C
381C
3C3C
1FFC
001C
001C
001C
001C
003E
007F
ENDCHAR
STARTCHAR afii10092
ENCODING 223
SWIDTH 562 0
DWIDTH 18 0
BBX 16 15 1 0
BITMAP
FFC0
FF80
C700
8700
8700
0700
07F8
07FE
070F
0707
0707
0707
0707
0FFE
1FF8
ENDCHAR
STARTCHAR afii10048
ENCODING 224
SWIDTH 937 0
DWIDTH 30 0
BBX 28 22 1 0
BITMAP
FF81FC00
3E078F00
1C0E0380
1C1C01C0
1C1C01C0
1C3800E0
1C3800E0
1C7800F0
1C7800F0
1C7800F0
1FF800F0
1C7800F0
1C7800F0
1C7800F0
1C7800F0
1C3800E0
1C3800E0
1C1C01C0
1C1C01C0
1C0E0380
3E078F00
FF81FC00
ENDCHAR
STARTCHAR afii10017
ENCODING 225
SWIDTH 687 0
DWIDTH 22 0
BBX 22 22 0 0
BITMAP
002000
002000
003000
007000
007800
00F800
00F800
00FC00
01BC00
019E00
031E00
030F00
030F00
060F00
060780
0FFF80
0C03C0
0C03C0
1801E0
1801E0
3803F0
FE0FFC
ENDCHAR
STARTCHAR afii10018
ENCODING 226
SWIDTH 656 0
DWIDTH 21 0
BBX 19 22 1 0
BITMAP
FFFF80
3E0180
1C0080
1C0080
1C0000
1C0000
1C0000
1C0000
1C0000
1FFE00
1E0F00
1C0380
1C03C0
1C01C0
1C01E0
1C01E0
1C01E0
1C01E0
1C03C0
1C03C0
3E0F80
FFFE00
ENDCHAR
STARTCHAR afii10040
ENCODING 227
SWIDTH 718 0
DWIDTH 23 0
BBX 21 26 1 -4
BITMAP
FF8FF8
3E03E0
1C01C0
1C01C0
1C01C0
1C01C0
1C01C0
1C01C0
1C01C0
1C01C0
1C01C0
1C01C0
1C01C0
1C01C0
1C01C0
1C01C0
1C01C0
1C01C0
1C01C0
1C01C0
3E03E0
FFFFF8
000038
000018
000008
000008
ENDCHAR
STARTCHAR afii10021
ENCODING 228
SWIDTH 750 0
DWIDTH 24 0
BBX 22 26 1 -4
BITMAP
3FFFF0
1E03E0
0C01E0
0C01E0
0C01E0
0C01E0
0C01E0
0C01E0
0C01E0
0C01E0
0C01E0
0C01E0
0C01E0
0C01E0
0C01E0
0C01E0
0C01E0
0C01E0
0C01E0
1801E0
3003F0
FFFFFC
E0001C
C0000C
800004
800004
ENDCHAR
STARTCHAR afii10022
ENCODING 229
SWIDTH 625 0
DWIDTH 20 0
BBX 18 22 1 0
BITMAP
FFFF00
3E0300
1C0100
1C0100
1C0000
1C0000
1C0000
1C0400
1C0400
1C0C00
1FFC00
1C0C00
1C0400
1C0400
1C0000
1C0000
1C0000
1C0000
1C0040
1C00C0
3E0380
FFFF80
ENDCHAR
STARTCHAR afii10038
ENCODING 230
SWIDTH 781 0
DWIDTH 25 0
BBX 23 22 1 0
BITMAP
007C00
003800
03FF80
0E38E0
1C3870
383838
383838
70381C
70381C
F0381E
F0381E
F0381E
F0381E
70381C
70381C
383838
383838
1C3870
0E38E0
03FF80
003800
01FF00
ENDCHAR
STARTCHAR afii10020
ENCODING 231
SWIDTH 593 0
DWIDTH 19 0
BBX 17 22 1 0
BITMAP
FFFF80
3E0180
1C0080
1C0080
1C0000
1C0000
1C0000
1C0000
1C0000
1C0000
1C0000
1C0000
1C0000
1C0000
1C0000
1C0000
1C0000
1C0000
1C0000
1C0000
3E0000
FFC000
ENDCHAR
STARTCHAR afii10039
ENCODING 232
SWIDTH 718 0
DWIDTH 23 0
BBX 23 22 0 0
BITMAP
7F81F8
1E0060
0F0040
078080
078100
03C100
01E200
01E400
00F800
007800
007C00
003C00
005E00
00CF00
008F00
010780
0303C0
0203C0
0401E0
0C00F0
3800F8
FF03FE
ENDCHAR
STARTCHAR afii10026
ENCODING 233
SWIDTH 750 0
DWIDTH 24 0
BBX 22 22 1 0
BITMAP
FF80FC
3E01F0
1C01E0
1C03E0
1C02E0
1C06E0
1C04E0
1C0CE0
1C08E0
1C18E0
1C10E0
1C30E0
1C20E0
1C60E0
1C40E0
1CC0E0
1C80E0
1D80E0
1D00E0
1F00E0
3E01F0
FE07FC
ENDCHAR
STARTCHAR afii10027
ENCODING 234
SWIDTH 750 0
DWIDTH 24 0
BBX 22 25 1 0
BITMAP
008200
00EE00
003800
FF80FC
3E01F0
1C01E0
1C03E0
1C02E0
1C06E0
1C04E0
1C0CE0
1C08E0
1C18E0
1C10E0
1C30E0
1C20E0
1C60E0
1C40E0
1CC0E0
1C80E0
1D80E0
1D00E0
1F00E0
3E01F0
FE07FC
ENDCHAR
STARTCHAR afii10028
ENCODING 235
SWIDTH 718 0
DWIDTH 23 0
BBX 21 22 1 0
BITMAP
FF80F0
3E01F8
1C0378
1C0630
1C0C00
1C1800
1C3000
1C6000
1CC000
1DE000
1F7000
1E7000
1C3800
1C1C00
1C1C00
1C0E00
1C0700
1C0700
1C0380
1C01C0
3E03E0
FF8FF8
ENDCHAR
STARTCHAR afii10029
ENCODING 236
SWIDTH 781 0
DWIDTH 25 0
BBX 23 22 1 0
BITMAP
0FFFF8
0781F0
0300F0
0300F0
0300F0
0300F0
0300F0
0300F0
0300F0
0300F0
0300F0
0300F0
0300F0
0300F0
0300F0
0300F0
0300F0
0300F0
6300F0
F300F0
F601F8
7C07FE
ENDCHAR
STARTCHAR afii10030
ENCODING 237
SWIDTH 875 0
DWIDTH 28 0
BBX 26 22 1 0
BITMAP
FE000FC0
3E000F00
1E001E00
17001E00
17001E00
17802E00
13802E00
13804E00
13C04E00
11C04E00
11E08E00
10E08E00
10E10E00
10F10E00
10710E00
107A0E00
103A0E00
103C0E00
101C0E00
101C0E00
38081F00
FE087FC0
ENDCHAR
STARTCHAR afii10031
ENCODING 238
SWIDTH 718 0
DWIDTH 23 0
BBX 21 22 1 0
BITMAP
FF8FF8
3E03E0
1C01C0
1C01C0
1C01C0
1C01C0
1C01C0
1C01C0
1C01C0
1FFFC0
1FFFC0
1C01C0
1C01C0
1C01C0
1C01C0
1C01C0
1C01C0
1C01C0
1C01C0
1C01C0
3E03E0
FF8FF8
ENDCHAR
STARTCHAR afii10032
ENCODING 239
SWIDTH 656 0
DWIDTH 21 0
BBX 19 22 1 0
BITMAP
03F800
0F1E00
1C0F00
380780
380380
7001C0
7001C0
F001E0
F001E0
F001E0
F001E0
F001E0
F001E0
F001E0
F001E0
7001C0
7001C0
380380
3C0380
1E0700
0F1E00
03F800
ENDCHAR
STARTCHAR afii10033
ENCODING 240
SWIDTH 718 0
DWIDTH 23 0
BBX 21 22 1 0
BITMAP
FFFFF8
3E03E0
1C01C0
1C01C0
1C01C0
1C01C0
1C01C0
1C01C0
1C01C0
1C01C0
1C01C0
1C01C0
1C01C0
1C01C0
1C01C0
1C01C0
1C01C0
1C01C0
1C01C0
1C01C0
3E03E0
FF8FF8
ENDCHAR
STARTCHAR afii10049
ENCODING 241
SWIDTH 687 0
DWIDTH 22 0
BBX 21 22 0 0
BITMAP
01FFF8
07C3E0
0781C0
0F01C0
0F01C0
0F01C0
0F01C0
0F01C0
0781C0
07C1C0
01FFC0
0079C0
0071C0
00E1C0
01E1C0
01C1C0
0381C0
0781C0
0701C0
0E01C0
1E03E0
FC0FF8
ENDCHAR
STARTCHAR afii10034
ENCODING 242
SWIDTH 593 0
DWIDTH 19 0
BBX 17 22 1 0
BITMAP
FFFC00
3E1F00
1C0F00
1C0780
1C0780
1C0780
1C0780
1C0780
1C0780
1C0780
1C0700
1C0F00
1FFC00
1C0000
1C0000
1C0000
1C0000
1C0000
1C0000
1C0000
3E0000
FF8000
ENDCHAR
STARTCHAR afii10035
ENCODING 243
SWIDTH 656 0
DWIDTH 21 0
BBX 19 22 1 0
BITMAP
01F880
078780
1E0180
3C0080
380000
780000
700000
F00000
F00000
F00000
F00000
F00000
F00000
F00000
F00000
780000
780000
3C0020
3E0040
1F8080
07FF00
01FC00
ENDCHAR
STARTCHAR afii10036
ENCODING 244
SWIDTH 656 0
DWIDTH 21 0
BBX 19 22 1 0
BITMAP
FFFFE0
C0E060
80E020
80E020
00E000
00E000
00E000
00E000
00E000
00E000
00E000
00E000
00E000
00E000
00E000
00E000
00E000
00E000
00E000
00E000
01F000
07FC00
ENDCHAR
STARTCHAR afii10037
ENCODING 245
SWIDTH 656 0
DWIDTH 21 0
BBX 20 22 1 0
BITMAP
FE07F0
7C03E0
180180
1C0180
0C0300
0E0300
060600
070600
030C00
038C00
019800
01D800
00F000
00F000
006000
006000
00C000
00C000
318000
798000
7B0000
3E0000
ENDCHAR
STARTCHAR afii10024
ENCODING 246
SWIDTH 1031 0
DWIDTH 33 0
BBX 33 22 0 0
BITMAP
3C0FF81E00
7E03E03F00
7B01C06F00
3181C0C600
00C1C18000
0061C30000
0031C60000
0019CC0000
001DDC0000
003FFE0000
0079CF0000
0071C70000
00E1C38000
01C1C1C000
01C1C1C000
0381C0E000
0701C07000
0701C07000
0E01C03800
1C01C01C00
3E03E03E00
FF8FF8FF80
ENDCHAR
STARTCHAR afii10019
ENCODING 247
SWIDTH 656 0
DWIDTH 21 0
BBX 19 22 1 0
BITMAP
FFFC00
3E0F00
1C0780
1C0380
1C03C0
1C03C0
1C03C0
1C0380
1C0780
1C0F00
1FFE00
1FFF00
1C0380
1C03C0
1C01C0
1C01E0
1C01E0
1C01E0
1C03C0
1C03C0
3E0F80
FFFE00
ENDCHAR
STARTCHAR afii10046
ENCODING 248
SWIDTH 656 0
DWIDTH 21 0
BBX 19 22 1 0
BITMAP
FF8000
3E0000
1C0000
1C0000
1C0000
1C0000
1C0000
1C0000
1C0000
1FFE00
1E0F00
1C0380
1C03C0
1C01C0
1C01E0
1C01E0
1C01E0
1C01E0
1C03C0
1C03C0
3E0F80
FFFE00
ENDCHAR
STARTCHAR afii10045
ENCODING 249
SWIDTH 906 0
DWIDTH 29 0
BBX 27 22 1 0
BITMAP
FF803FE0
3E000F80
1C000700
1C000700
1C000700
1C000700
1C000700
1C000700
1C000700
1FFE0700
1E0F0700
1C038700
1C03C700
1C01C700
1C01E700
1C01E700
1C01E700
1C01E700
1C03C700
1C03C700
3E0F8F80
FFFE3FE0
ENDCHAR
STARTCHAR afii10025
ENCODING 250
SWIDTH 656 0
DWIDTH 21 0
BBX 17 22 3 0
BITMAP
8FF000
F83C00
C01E00
800F00
800F00
000F00
000F00
100E00
101E00
183C00
1FF800
183C00
100E00
100F00
000700
000780
000780
800780
800780
C00F00
F83E00
8FF800
ENDCHAR
STARTCHAR afii10042
ENCODING 251
SWIDTH 1031 0
DWIDTH 33 0
BBX 31 22 1 0
BITMAP
FF9FF3FE
3E07C0F8
1C038070
1C038070
1C038070
1C038070
1C038070
1C038070
1C038070
1C038070
1C038070
1C038070
1C038070
1C038070
1C038070
1C038070
1C038070
1C038070
1C038070
1C038070
3E07C0F8
FFFFFFFE
ENDCHAR
STARTCHAR afii10047
ENCODING 252
SWIDTH 656 0
DWIDTH 21 0
BBX 17 22 3 0
BITMAP
8FF800
F81E00
C00F00
800780
800780
000780
000780
000780
100780
180780
1FFF80
180780
100780
000780
000780
000780
000780
800780
800780
C00F00
F83E00
8FF800
ENDCHAR
STARTCHAR afii10043
ENCODING 253
SWIDTH 1031 0
DWIDTH 33 0
BBX 31 26 1 -4
BITMAP
FF9FF3FE
3E07C0F8
1C038070
1C038070
1C038070
1C038070
1C038070
1C038070
1C038070
1C038070
1C038070
1C038070
1C038070
1C038070
1C038070
1C038070
1C038070
1C038070
1C038070
1C038070
3E07C0F8
FFFFFFFE
0000000E
00000006
00000002
00000002
ENDCHAR
STARTCHAR afii10041
ENCODING 254
SWIDTH 718 0
DWIDTH 23 0
BBX 21 22 1 0
BITMAP
FF8FF8
3E03E0
1C01C0
1C01C0
1C01C0
1C01C0
1C01C0
1C01C0
1C01C0
1C01C0
1E03C0
0FFFC0
0001C0
0001C0
0001C0
0001C0
0001C0
0001C0
0001C0
0001C0
0003E0
000FF8
ENDCHAR
STARTCHAR afii10044
ENCODING 255
SWIDTH 750 0
DWIDTH 24 0
BBX 22 22 1 0
BITMAP
FFF000
E7C000
C38000
838000
838000
038000
038000
038000
038000
03FFC0
03C1E0
038070
038078
038038
03803C
03803C
03803C
03803C
038078
038078
07C1F0
1FFFC0
ENDCHAR
ENDFONT
